<svg id="Layer_1" data-name="Layer 1" xmlns="http://www.w3.org/2000/svg" xmlns:xlink="http://www.w3.org/1999/xlink" viewBox="0 0 5 5"><defs><style>.cls-1{fill:#fff;}.cls-2{fill:gold;}.cls-3{fill:url(#Silver);}.cls-4{fill:url(#Silver-2);}.cls-5{fill:url(#Silver-3);}.cls-6{fill:url(#Silver-4);}.cls-7{fill:url(#Silver-5);}.cls-8{fill:url(#Silver-6);}.cls-9{fill:url(#Silver-7);}.cls-10{fill:url(#Silver-8);}.cls-11{fill:url(#Silver-9);}</style><linearGradient id="Silver" x1="681.69" y1="382.48" x2="681.69" y2="384.98" gradientUnits="userSpaceOnUse"><stop offset="0" stop-color="#e4e1de"/><stop offset="0" stop-color="#dcd8d5"/><stop offset="0.06" stop-color="#cdc9c8"/><stop offset="0.18" stop-color="#a6a2a5"/><stop offset="0.26" stop-color="#89858b"/><stop offset="0.52" stop-color="#f1f2f2"/><stop offset="0.59" stop-color="#e3e3e4"/><stop offset="0.71" stop-color="#bebcbe"/><stop offset="0.87" stop-color="#827e82"/><stop offset="0.88" stop-color="#807c80"/><stop offset="1" stop-color="#d0d1d2"/><stop offset="1" stop-color="#a5a7aa"/></linearGradient><linearGradient id="Silver-2" x1="682.28" y1="384.07" x2="682.28" y2="382.84" xlink:href="#Silver"/><linearGradient id="Silver-3" x1="682.81" y1="384.05" x2="682.81" y2="382.89" xlink:href="#Silver"/><linearGradient id="Silver-4" x1="683.32" y1="384.07" x2="683.32" y2="382.84" xlink:href="#Silver"/><linearGradient id="Silver-5" x1="683.81" y1="383.03" x2="683.81" y2="383.95" xlink:href="#Silver"/><linearGradient id="Silver-6" x1="682.32" y1="384.01" x2="682.32" y2="384.83" xlink:href="#Silver"/><linearGradient id="Silver-7" x1="682.85" y1="384.01" x2="682.85" y2="384.84" xlink:href="#Silver"/><linearGradient id="Silver-8" x1="683.35" y1="383.92" x2="683.35" y2="384.89" xlink:href="#Silver"/><linearGradient id="Silver-9" x1="683.81" y1="384.9" x2="683.81" y2="384.02" xlink:href="#Silver"/></defs><title>logo</title><path class="cls-1" d="M682.71,386.18a2,2,0,0,1-2-2h.09a1.89,1.89,0,0,0,1.87,1.91,1.82,1.82,0,0,0,.51-.07l0,.09A1.91,1.91,0,0,1,682.71,386.18Z" transform="translate(-680.21 -381.7)"/><polygon class="cls-1" points="0.23 4.87 0.15 4.83 0.92 3.38 1 3.43 0.23 4.87"/><polygon class="cls-1" points="0.9 4.92 0.81 4.88 1.3 3.97 1.38 4.02 0.9 4.92"/><polygon class="cls-2" points="1.24 3.77 1.16 3.72 1.36 3.33 1.45 3.38 1.24 3.77"/><path class="cls-1" d="M681.21,382.23l-.07-.19a2.57,2.57,0,0,0-.92,1.31h.2A2.37,2.37,0,0,1,681.21,382.23Z" transform="translate(-680.21 -381.7)"/><path class="cls-2" d="M681.56,382.12a2.37,2.37,0,0,0-1.13,1.69h.22a2.15,2.15,0,0,1,1-1.48Z" transform="translate(-680.21 -381.7)"/><polygon class="cls-1" points="3.79 1.36 3.71 1.3 4.72 0 4.79 0.06 3.79 1.36"/><path class="cls-2" d="M683.84,382.37a2.11,2.11,0,0,1,.28.22l.26-.33a2.52,2.52,0,0,0-.28-.22Z" transform="translate(-680.21 -381.7)"/><path class="cls-1" d="M684.85,383.7v0a2.27,2.27,0,0,0-.46-1l-.06.08a2.16,2.16,0,0,1,.45,1,2.2,2.2,0,0,1,0,.34,2.14,2.14,0,0,1-1.4,2l-.08.13a2.21,2.21,0,0,0,1.12-.79,2.25,2.25,0,0,0,.45-1.36A2.3,2.3,0,0,0,684.85,383.7Z" transform="translate(-680.21 -381.7)"/><path class="cls-1" d="M685.07,383.32l-.14.24a2.41,2.41,0,0,1,.08.61,2.34,2.34,0,0,1-1.76,2.29l-.14.24a2.55,2.55,0,0,0,2.1-2.53A2.6,2.6,0,0,0,685.07,383.32Z" transform="translate(-680.21 -381.7)"/><path class="cls-1" d="M684.58,382.48l-.12.15a2.37,2.37,0,0,1,.46.85l.13-.22A2.58,2.58,0,0,0,684.58,382.48Z" transform="translate(-680.21 -381.7)"/><path class="cls-2" d="M680.21,384.17a2.56,2.56,0,0,0,1.85,2.47l.2-.38a2.13,2.13,0,0,1-1.64-2.09s0-.07,0-.11h-.41S680.21,384.13,680.21,384.17Z" transform="translate(-680.21 -381.7)"/><path id="_Compound_Path_" data-name="&lt;Compound Path&gt;" class="cls-3" d="M681.86,384.89v-.71h-.34v.71h-.12v-1.64h.12V384h.34v-.71H682v1.64Z" transform="translate(-680.21 -381.7)"/><path id="_Compound_Path_2" data-name="&lt;Compound Path&gt;" class="cls-4" d="M682.44,384l-.06-.22h-.2l-.06.22H682l.22-.73h.07l.22.73Zm-.16-.59h0l-.07.28h.15Z" transform="translate(-680.21 -381.7)"/><path id="_Compound_Path_3" data-name="&lt;Compound Path&gt;" class="cls-5" d="M682.92,384a.2.2,0,0,1-.11,0c-.14,0-.25-.16-.25-.36s.11-.36.25-.36a.26.26,0,0,1,.22.19h-.08a.16.16,0,0,0-.13-.09c-.1,0-.18.13-.18.27s.08.26.18.26.14-.07.17-.17h-.23v-.09h.31A.38.38,0,0,1,682.92,384Z" transform="translate(-680.21 -381.7)"/><path id="_Compound_Path_4" data-name="&lt;Compound Path&gt;" class="cls-6" d="M683.48,384l-.06-.22h-.2l-.06.22h-.09l.22-.73h.07l.22.73Zm-.16-.59h0l-.07.28h.15Z" transform="translate(-680.21 -381.7)"/><path id="_Compound_Path_5" data-name="&lt;Compound Path&gt;" class="cls-7" d="M683.9,383.71h-.06l.17.28h-.11l-.2-.34h0V384h-.09v-.74h.19a.2.2,0,0,1,.16.06.27.27,0,0,1,.06.18A.21.21,0,0,1,683.9,383.71Zm-.11-.35h-.1v.28h.06c.08,0,.17,0,.17-.15A.13.13,0,0,0,683.79,383.35Z" transform="translate(-680.21 -381.7)"/><path id="_Compound_Path_6" data-name="&lt;Compound Path&gt;" class="cls-8" d="M682.32,384.89c-.13,0-.24-.15-.24-.34s.11-.34.24-.34.24.15.24.35S682.45,384.89,682.32,384.89Zm0-.6c-.07,0-.13.06-.15.15a.37.37,0,0,0,0,.11.39.39,0,0,0,0,.11c0,.09.08.15.15.15s.13-.06.16-.16a.35.35,0,0,0,0-.09C682.49,384.4,682.42,384.28,682.32,384.28Z" transform="translate(-680.21 -381.7)"/><path id="_Compound_Path_7" data-name="&lt;Compound Path&gt;" class="cls-9" d="M682.85,384.89a.19.19,0,0,1-.19-.21h.09c0,.06,0,.12.1.12a.1.1,0,0,0,.1-.11c0-.07,0-.09-.1-.11s-.17-.07-.17-.2a.17.17,0,0,1,.17-.18.17.17,0,0,1,.17.18h-.09a.09.09,0,0,0-.08-.1.09.09,0,0,0-.08.09c0,.14.27.06.27.31A.19.19,0,0,1,682.85,384.89Z" transform="translate(-680.21 -381.7)"/><path id="_Compound_Path_8" data-name="&lt;Compound Path&gt;" class="cls-10" d="M683.49,384.86l-.27-.5h0v.5h-.08v-.64h.09l.26.49h0v-.49h.08v.64Z" transform="translate(-680.21 -381.7)"/><path id="_Compound_Path_9" data-name="&lt;Compound Path&gt;" class="cls-11" d="M683.85,384.62v.24h-.08v-.24l-.17-.43h.09l.12.31.12-.31H684Z" transform="translate(-680.21 -381.7)"/></svg>